<svg width="48" height="48" viewBox="0 0 48 48" fill="none" xmlns="http://www.w3.org/2000/svg">
<rect x="0.15" y="0.15" width="47.7" height="47.7" rx="11.85" fill="white"/>
<rect x="0.15" y="0.15" width="47.7" height="47.7" rx="11.85" fill="url(#paint0_linear_665_101633)"/>
<path d="M18 10.5L30 37.5M10.5 31.5L24 24M17.7 37.5H30.3C32.8202 37.5 34.0804 37.5 35.043 37.0095C35.8897 36.5781 36.5781 35.8897 37.0095 35.043C37.5 34.0804 37.5 32.8202 37.5 30.3V17.7C37.5 15.1798 37.5 13.9196 37.0095 12.957C36.5781 12.1103 35.8897 11.4219 35.043 10.9905C34.0804 10.5 32.8202 10.5 30.3 10.5H17.7C15.1798 10.5 13.9196 10.5 12.957 10.9905C12.1103 11.4219 11.4219 12.1103 10.9905 12.957C10.5 13.9196 10.5 15.1798 10.5 17.7V30.3C10.5 32.8202 10.5 34.0804 10.9905 35.043C11.4219 35.8897 12.1103 36.5781 12.957 37.0095C13.9196 37.5 15.1798 37.5 17.7 37.5Z" stroke="#50915B" stroke-width="3" stroke-linecap="round" stroke-linejoin="round"/>
<rect x="0.15" y="0.15" width="47.7" height="47.7" rx="11.85" stroke="#D0D5DD" stroke-width="0.3"/>
<defs>
<linearGradient id="paint0_linear_665_101633" x1="24" y1="0" x2="24" y2="48" gradientUnits="userSpaceOnUse">
<stop stop-color="white"/>
<stop offset="1" stop-color="#D0D5DD"/>
</linearGradient>
</defs>
</svg>
