<svg width="15" height="15" viewBox="0 0 15 15" fill="none" xmlns="http://www.w3.org/2000/svg">
<path d="M0.666748 14.3334L4.36626 12.9105C4.60289 12.8195 4.7212 12.774 4.83189 12.7146C4.93022 12.6618 5.02395 12.6009 5.11211 12.5324C5.21136 12.4554 5.301 12.3658 5.48027 12.1865L13.0001 4.66671C13.7365 3.93033 13.7365 2.73642 13.0001 2.00004C12.2637 1.26366 11.0698 1.26366 10.3334 2.00004L2.8136 9.51985C2.63433 9.69912 2.5447 9.78876 2.46768 9.88801C2.39926 9.97617 2.33835 10.0699 2.28557 10.1682C2.22615 10.2789 2.18065 10.3972 2.08964 10.6339L0.666748 14.3334ZM0.666748 14.3334L2.03883 10.766C2.13701 10.5107 2.1861 10.3831 2.27031 10.3246C2.34389 10.2735 2.43495 10.2542 2.52295 10.271C2.62364 10.2902 2.72034 10.3869 2.91374 10.5803L4.4198 12.0864C4.6132 12.2798 4.7099 12.3765 4.72912 12.4772C4.74593 12.5652 4.72661 12.6562 4.67551 12.7298C4.61705 12.814 4.48941 12.8631 4.23413 12.9613L0.666748 14.3334Z" stroke="#98A2B3" stroke-width="1.33333" stroke-linecap="round" stroke-linejoin="round"/>
</svg>
